<svg xmlns="http://www.w3.org/2000/svg" xmlns:xlink="http://www.w3.org/1999/xlink" fill="none" version="1.1" width="16" height="16" viewBox="0 0 16 16"><defs><clipPath id="master_svg0_3_108"><rect x="0" y="0" width="16" height="16" rx="0"/></clipPath></defs><g clip-path="url(#master_svg0_3_108)"><g><path d="M8.042264736328125,6.981604736328125L4.287684736328125,3.227024736328125Q4.2354547363281245,3.174791736328125,4.1740347363281245,3.133752736328125Q4.1126147363281245,3.092713336328125,4.044364736328125,3.064445136328125Q3.976121736328125,3.036176836328125,3.903672736328125,3.021765836328125Q3.831222736328125,3.007354771243725,3.757354736328125,3.007354771243725Q3.683485736328125,3.007354771243725,3.611036736328125,3.021765836328125Q3.538587736328125,3.036176836328125,3.470341736328125,3.064445136328125Q3.402096736328125,3.092713336328125,3.340676736328125,3.133752736328125Q3.279257736328125,3.174791736328125,3.227024736328125,3.227024736328125Q3.174791736328125,3.279257736328125,3.133752736328125,3.340676736328125Q3.092713336328125,3.402096736328125,3.064445136328125,3.470341736328125Q3.036176836328125,3.538587736328125,3.021765836328125,3.611036736328125Q3.007354771243725,3.683485736328125,3.007354771243725,3.757354736328125Q3.007354771243725,3.831222736328125,3.021765836328125,3.903672736328125Q3.036176836328125,3.976121736328125,3.064445136328125,4.044364736328125Q3.092713336328125,4.1126147363281245,3.133752736328125,4.1740347363281245Q3.174791736328125,4.2354547363281245,3.227024736328125,4.287684736328125L6.981604736328125,8.042264736328125L3.268934736328125,11.754934736328124Q3.216701736328125,11.807174736328125,3.175662736328125,11.868584736328126Q3.134623736328125,11.930004736328126,3.106355336328125,11.998254736328125Q3.078087036328125,12.066504736328126,3.063675936328125,12.138954736328126Q3.049264836328125,12.211404736328126,3.049264736328125,12.285264736328125Q3.049264736328125,12.359134736328125,3.063675636328125,12.431584736328125Q3.078086636328125,12.504034736328125,3.106354836328125,12.572284736328125Q3.134622736328125,12.640524736328125,3.175661736328125,12.701944736328125Q3.216701736328125,12.763364736328125,3.268934736328125,12.815594736328125Q3.321166736328125,12.867834736328126,3.382586736328125,12.908874736328125Q3.444005736328125,12.949904736328126,3.512251736328125,12.978174736328125Q3.580497736328125,13.006444736328126,3.652946736328125,13.020854736328126Q3.725395736328125,13.035254736328126,3.799264736328125,13.035254736328126Q3.873132736328125,13.035254736328126,3.945581736328125,13.020854736328126Q4.018034736328125,13.006444736328126,4.086274736328125,12.978174736328125Q4.154524736328125,12.949904736328126,4.215944736328125,12.908874736328125Q4.277364736328125,12.867834736328126,4.329594736328125,12.815594736328125L8.042264736328125,9.102924736328125L11.712304736328125,12.772964736328126Q11.764534736328125,12.825194736328125,11.825954736328125,12.866234736328124Q11.887374736328125,12.907274736328125,11.955624736328126,12.935544736328126Q12.023864736328125,12.963814736328125,12.096314736328125,12.978224736328125Q12.168764736328125,12.992634736328124,12.242634736328124,12.992634736328124Q12.316504736328126,12.992634736328124,12.388954736328126,12.978224736328125Q12.461404736328126,12.963814736328125,12.529644736328125,12.935544736328126Q12.597894736328126,12.907274736328125,12.659314736328126,12.866234736328124Q12.720734736328126,12.825194736328125,12.772964736328126,12.772964736328126Q12.825194736328125,12.720734736328126,12.866234736328124,12.659314736328126Q12.907274736328125,12.597894736328126,12.935544736328126,12.529644736328125Q12.963814736328125,12.461404736328126,12.978224736328125,12.388954736328126Q12.992634736328124,12.316504736328126,12.992634736328124,12.242634736328124Q12.992634736328124,12.168764736328125,12.978224736328125,12.096314736328125Q12.963814736328125,12.023864736328125,12.935544736328126,11.955624736328126Q12.907274736328125,11.887374736328125,12.866234736328124,11.825954736328125Q12.825194736328125,11.764534736328125,12.772964736328126,11.712304736328125L9.102924736328125,8.042264736328125L12.814874736328125,4.330314736328125Q12.920364736328125,4.2248247363281255,12.977454736328125,4.087004736328125Q13.034554736328126,3.949171736328125,13.034554736328126,3.799987736328125Q13.034554736328126,3.650803736328125,12.977454736328125,3.512974736328125Q12.920364736328125,3.375146736328125,12.814874736328125,3.269657736328125Q12.709384736328126,3.164168736328125,12.571554736328125,3.107078136328125Q12.433724736328125,3.049987836328125,12.284544736328124,3.049987836328125Q12.135364736328125,3.049987836328125,11.997534736328126,3.107078136328125Q11.859704736328124,3.164168736328125,11.754214736328125,3.269657736328125L8.042264736328125,6.981604736328125Z" fill-rule="evenodd" fill="#000000" fill-opacity="1"/></g></g></svg>