<svg xmlns="http://www.w3.org/2000/svg" xmlns:xlink="http://www.w3.org/1999/xlink" fill="none" version="1.1" width="18" height="18" viewBox="0 0 18 18"><defs><clipPath id="master_svg0_1_8"><rect x="0" y="0" width="18" height="18" rx="0"/></clipPath></defs><g clip-path="url(#master_svg0_1_8)"><g><path d="M14.606179999351502,2.297810006790161L14.606179999351502,15.702180006790162C14.606179999351502,16.11468000679016,14.951679999351501,16.45308000679016,15.374079999351501,16.45308000679016C15.796379999351501,16.45308000679016,16.141879999351502,16.11468000679016,16.141879999351502,15.702180006790162L16.141879999351502,2.297810006790161C16.141879999351502,1.8853100067901611,15.796379999351501,1.5468800067901611,15.374079999351501,1.5468800067901611C14.951679999351501,1.5468800067901611,14.606179999351502,1.8853100067901611,14.606179999351502,2.297810006790161ZM11.892179999351502,15.702180006790162L11.892179999351502,5.717820006790161C11.892179999351502,5.305320006790161,11.546699999351501,4.969680006790162,11.124399999351501,4.969680006790162C10.701999999351502,4.969680006790162,10.356599999351502,5.305320006790161,10.356599999351502,5.717820006790161L10.356599999351502,15.702180006790162C10.356599999351502,16.11468000679016,10.701999999351502,16.45308000679016,11.124399999351501,16.45308000679016C11.546699999351501,16.45308000679016,11.892179999351502,16.11468000679016,11.892179999351502,15.702180006790162ZM7.642489999351501,15.702180006790162L7.642489999351501,9.000000006790161C7.642489999351501,8.587500006790162,7.296959999351501,8.249070006790161,6.8746799993515015,8.249070006790161C6.452389999351501,8.249070006790161,6.106869999351502,8.587500006790162,6.106869999351502,9.000000006790161L6.106869999351502,15.702180006790162C6.106869999351502,16.11468000679016,6.452389999351501,16.45308000679016,6.8746799993515015,16.45308000679016C7.296969999351502,16.45308000679016,7.642489999351501,16.11468000679016,7.642489999351501,15.702180006790162ZM3.3927999993515012,15.702180006790162L3.3927999993515012,12.045880006790162C3.3927999993515012,11.63338000679016,3.0473099993515014,11.297800006790162,2.6249899993515013,11.297800006790162C2.2026699993515013,11.297800006790162,1.8571799993515015,11.63338000679016,1.8571799993515015,12.045880006790162L1.8571799993515015,15.702180006790162C1.8571799993515015,16.11468000679016,2.2026699993515013,16.45308000679016,2.6249899993515013,16.45308000679016C3.0473099993515014,16.45308000679016,3.3927999993515012,16.11468000679016,3.3927999993515012,15.702180006790162Z" fill-rule="evenodd" fill="#FFFFFF" fill-opacity="1"/></g></g></svg>