<svg xmlns="http://www.w3.org/2000/svg" xmlns:xlink="http://www.w3.org/1999/xlink" fill="none" version="1.1" width="18" height="18" viewBox="0 0 18 18"><defs><clipPath id="master_svg0_3_1"><rect x="0" y="0" width="18" height="18" rx="0"/></clipPath></defs><g clip-path="url(#master_svg0_3_1)"><g><path d="M14.606177734375,7.574495L14.606177734375,2.297805C14.606177734375,1.885305,14.951677734375,1.546875,15.374077734375,1.546875C15.796377734375,1.546875,16.141877734375,1.885305,16.141877734375,2.297805L16.141877734375,8.499995C15.712777734375,8.023595,15.191577734375,7.853565,14.606177734375,7.574495ZM11.892177734375,7.637335L11.892177734375,5.717815C11.892177734375,5.305315,11.546697734375,4.9696750000000005,11.124397734375,4.9696750000000005C10.701997734375,4.9696750000000005,10.356597734375,5.305315,10.356597734375,5.717815L10.356597734375,8.092435C10.830687734375,7.861455,11.347597734375,7.704715,11.892177734375,7.637335ZM7.642487734375,8.999995L7.642487734375,15.702175C7.642487734375,16.114675,7.296967734375,16.453075,6.874677734375,16.453075C6.452387734375,16.453075,6.106867734375,16.114675,6.106867734375,15.702175L6.106867734375,8.999995C6.106867734375,8.587495,6.452387734375,8.249065,6.874677734375,8.249065C7.296957734375,8.249065,7.642487734375,8.587495,7.642487734375,8.999995ZM3.3927977343749998,12.045875L3.3927977343749998,15.702175C3.3927977343749998,16.114675,3.047307734375,16.453075,2.624987734375,16.453075C2.202667734375,16.453075,1.857177734375,16.114675,1.857177734375,15.702175L1.857177734375,12.045875C1.857177734375,11.633375,2.202667734375,11.297795,2.624987734375,11.297795C3.047307734375,11.297795,3.3927977343749998,11.633375,3.3927977343749998,12.045875Z" fill-rule="evenodd" fill="#FFFFFF" fill-opacity="1"/></g><g><g><path d="M16.75,13C16.75,15.071069999999999,15.071069999999999,16.75,13,16.75C10.92893,16.75,9.25,15.071069999999999,9.25,13C9.25,10.92893,10.92893,9.25,13,9.25C15.071069999999999,9.25,16.75,10.92893,16.75,13ZM11.03896,11.8961C10.85498,12.22223,10.75,12.59886,10.75,13C10.75,14.24264,11.75736,15.25,13,15.25C13.40114,15.25,13.77777,15.145019999999999,14.1039,14.96104L11.03896,11.8961ZM15.092590000000001,13.82841C15.19417,13.57203,15.25,13.292539999999999,15.25,13C15.25,11.75736,14.24264,10.75,13,10.75C12.707460000000001,10.75,12.42797,10.80583,12.17159,10.90741L15.092590000000001,13.82841Z" fill-rule="evenodd" fill="#FFFFFF" fill-opacity="1"/></g></g></g></svg>