<svg xmlns="http://www.w3.org/2000/svg" xmlns:xlink="http://www.w3.org/1999/xlink" fill="none" version="1.1" width="18" height="18" viewBox="0 0 18 18"><defs><clipPath id="master_svg0_1_02"><rect x="0" y="0" width="18" height="18" rx="0"/></clipPath></defs><g clip-path="url(#master_svg0_1_02)"><g><path d="M1.9125100374221802,7.353089986572265C1.9125100374221802,7.099349986572266,1.9440499374221802,6.849729986572266,2.0071299374221803,6.604239986572265C2.0692600374221803,6.362419986572266,2.16012003742218,6.131839986572266,2.27971003742218,5.912499986572266C2.39929003742218,5.693179986572265,2.5438900374221802,5.491909986572265,2.71349003742218,5.308689986572265C2.8856800374221803,5.122669986572266,3.07841003742218,4.960929986572266,3.29170003742218,4.823469986572265L7.36983003742218,2.1953599865722655C7.61550003742218,2.0370299865722656,7.878410037422181,1.9170899865722657,8.15851003742218,1.8355299865722656C8.43318003742218,1.7555600865722656,8.71367003742218,1.7155799865722656,9.00001003742218,1.7155799865722656C9.28634003742218,1.7155799865722656,9.56684003742218,1.7555600865722656,9.84151003742218,1.8355299865722656C10.12160003742218,1.9170899865722657,10.38450003742218,2.0370299865722656,10.63020003742218,2.1953599865722655L14.70831003742218,4.823469986572265C14.92161003742218,4.960919986572266,15.11431003742218,5.122669986572266,15.28651003742218,5.308689986572265C15.45611003742218,5.491909986572265,15.60071003742218,5.693179986572265,15.72031003742218,5.912499986572266C15.83991003742218,6.131839986572266,15.93081003742218,6.362419986572266,15.99291003742218,6.604239986572265C16.05601003742218,6.8497099865722655,16.08751003742218,7.099349986572266,16.08751003742218,7.353089986572265L16.08751003742218,13.157579986572266C16.08751003742218,14.819579986572265,14.74021003742218,16.166979986572265,13.07811003742218,16.166979986572265L4.921880037422181,16.166979986572265C3.25985003742218,16.166979986572265,1.9125100374221802,14.819579986572265,1.9125100374221802,13.157579986572266L1.9125100374221802,7.353089986572265ZM3.43126003742218,7.353089986572265L3.43126003742218,13.157579986572266C3.43126003742218,13.980779986572266,4.09863003742218,14.648179986572266,4.921880037422181,14.648179986572266L13.07811003742218,14.648179986572266C13.90141003742218,14.648179986572266,14.56881003742218,13.980779986572266,14.56881003742218,13.157579986572266L14.56881003742218,7.353089986572265C14.56881003742218,7.099769986572266,14.50811003742218,6.861919986572266,14.38691003742218,6.639529986572265C14.26561003742218,6.417119986572265,14.09851003742218,6.237319986572266,13.88561003742218,6.100119986572266L9.80748003742218,3.4719699865722653C9.56163003742218,3.3135399865722657,9.29248003742218,3.2343299865722654,9.00001003742218,3.2343299865722654C8.707530037422181,3.2343299865722654,8.43837003742218,3.3135399865722657,8.19254003742218,3.4719699865722653L4.11441003742218,6.100119986572266C3.90149003742218,6.237319986572266,3.73440003742218,6.417119986572265,3.6131400374221805,6.639529986572265C3.49188003742218,6.861929986572266,3.43126003742218,7.0997799865722655,3.43126003742218,7.353089986572265ZM8.24063003742218,9.501339986572265C8.24063003742218,9.081939986572266,8.58061003742218,8.741959986572265,9.00001003742218,8.741959986572265C9.41941003742218,8.741959986572265,9.75938003742218,9.081939986572266,9.75938003742218,9.501339986572265L9.75938003742218,12.313779986572266C9.75938003742218,12.733179986572265,9.41941003742218,13.073179986572265,9.00001003742218,13.073179986572265C8.58061003742218,13.073179986572265,8.24063003742218,12.733179986572265,8.24063003742218,12.313779986572266L8.24063003742218,9.501339986572265Z" fill-rule="evenodd" fill="#FFFFFF" fill-opacity="1"/></g></g></svg>