<svg xmlns="http://www.w3.org/2000/svg" xmlns:xlink="http://www.w3.org/1999/xlink" fill="none" version="1.1" width="18" height="18" viewBox="0 0 18 18"><defs><clipPath id="master_svg0_1_4"><rect x="0" y="0" width="18" height="18" rx="0"/></clipPath></defs><g clip-path="url(#master_svg0_1_4)"><g><path d="M2.625,3.75C2.625,4.3725000000000005,3.1275,4.875,3.75,4.875C4.3725000000000005,4.875,4.875,4.3725000000000005,4.875,3.75C4.875,3.1275,4.3725000000000005,2.625,3.75,2.625C3.1275,2.625,2.625,3.1275,2.625,3.75ZM7.875,3.75C7.875,4.3725000000000005,8.377500000000001,4.875,9,4.875C9.622499999999999,4.875,10.125,4.3725000000000005,10.125,3.75C10.125,3.1275,9.622499999999999,2.625,9,2.625C8.377500000000001,2.625,7.875,3.1275,7.875,3.75ZM13.125,3.75C13.125,4.3725000000000005,13.6275,4.875,14.25,4.875C14.8725,4.875,15.375,4.3725000000000005,15.375,3.75C15.375,3.1275,14.8725,2.625,14.25,2.625C13.6275,2.625,13.125,3.1275,13.125,3.75ZM2.625,9C2.625,9.622499999999999,3.1275,10.125,3.75,10.125C4.3725000000000005,10.125,4.875,9.622499999999999,4.875,9C4.875,8.377500000000001,4.3725000000000005,7.875,3.75,7.875C3.1275,7.875,2.625,8.377500000000001,2.625,9ZM7.875,9C7.875,9.622499999999999,8.377500000000001,10.125,9,10.125C9.622499999999999,10.125,10.125,9.622499999999999,10.125,9C10.125,8.377500000000001,9.622499999999999,7.875,9,7.875C8.377500000000001,7.875,7.875,8.377500000000001,7.875,9ZM13.125,9C13.125,9.622499999999999,13.6275,10.125,14.25,10.125C14.8725,10.125,15.375,9.622499999999999,15.375,9C15.375,8.377500000000001,14.8725,7.875,14.25,7.875C13.6275,7.875,13.125,8.377500000000001,13.125,9ZM2.625,14.25C2.625,14.8725,3.1275,15.375,3.75,15.375C4.3725000000000005,15.375,4.875,14.8725,4.875,14.25C4.875,13.6275,4.3725000000000005,13.125,3.75,13.125C3.1275,13.125,2.625,13.6275,2.625,14.25ZM7.875,14.25C7.875,14.8725,8.377500000000001,15.375,9,15.375C9.622499999999999,15.375,10.125,14.8725,10.125,14.25C10.125,13.6275,9.622499999999999,13.125,9,13.125C8.377500000000001,13.125,7.875,13.6275,7.875,14.25ZM14.25,15.375C14.8725,15.375,15.375,14.8725,15.375,14.25C15.375,13.6275,14.8725,13.125,14.25,13.125C13.6275,13.125,13.125,13.6275,13.125,14.25C13.125,14.8725,13.6275,15.375,14.25,15.375Z" fill-rule="evenodd" fill="#FFFFFF" fill-opacity="1"/></g></g></svg>