<svg xmlns="http://www.w3.org/2000/svg" xmlns:xlink="http://www.w3.org/1999/xlink" fill="none" version="1.1" width="18" height="18" viewBox="0 0 18 18"><defs><clipPath id="master_svg0_1_06"><rect x="0" y="0" width="18" height="18" rx="0"/></clipPath></defs><g clip-path="url(#master_svg0_1_06)"><g><path d="M1.68517005443573,7.872679233551025C1.68517005443573,11.288899233551025,4.45642005443573,14.060179233551025,7.87266005443573,14.060179233551025C9.321180054435729,14.060179233551025,10.65370005443573,13.561979233551025,11.70817005443573,12.727579233551026L15.01647005443573,16.035879233551025C15.31077005443573,16.330179233551025,15.78537005443573,16.327479233551024,16.07707005443573,16.035879233551025C16.36877005443573,15.744179233551025,16.37137005443573,15.269579233551026,16.07707005443573,14.975179233551025L12.76387005443573,11.661999233551025C13.57637005443573,10.614899233551025,14.06017005443573,9.300079233551024,14.06017005443573,7.872679233551025C14.06017005443573,4.456429233551026,11.28890005443573,1.6851799488070254,7.87266005443573,1.6851799488070254C4.45642005443573,1.6851799488070254,1.68517005443573,4.456429233551026,1.68517005443573,7.872679233551025ZM12.56017005443573,7.872679233551025C12.56017005443573,5.285179233551025,10.46020005443573,3.1851792335510254,7.87266005443573,3.1851792335510254C5.28516005443573,3.1851792335510254,3.18517005443573,5.285179233551025,3.18517005443573,7.872679233551025C3.18517005443573,10.460199233551025,5.28516005443573,12.560179233551025,7.87266005443573,12.560179233551025C9.14519005443573,12.560179233551025,10.29980005443573,12.052279233551026,11.14470005443573,11.228299233551025C11.16270005443573,11.205299233551026,11.18230005443573,11.183299233551026,11.20340005443573,11.162199233551025C11.22260005443573,11.142999233551025,11.24260005443573,11.125099233551026,11.26320005443573,11.108399233551026C12.06657005443573,10.266899233551026,12.56017005443573,9.127089233551025,12.56017005443573,7.872679233551025Z" fill-rule="evenodd" fill="#FFFFFF" fill-opacity="1"/></g></g></svg>