<svg xmlns="http://www.w3.org/2000/svg" xmlns:xlink="http://www.w3.org/1999/xlink" fill="none" version="1.1" width="18" height="18" viewBox="0 0 18 18"><defs><clipPath id="master_svg0_1_0"><rect x="0" y="0" width="18" height="18" rx="0"/></clipPath></defs><g clip-path="url(#master_svg0_1_0)"><g><path d="M5.61,2.10375C5.60625,2.08125,5.59875,2.055,5.59125,2.0324999999999998C5.58375,2.01,5.57625,1.9875,5.56875,1.96125C5.5575,1.93875,5.54625,1.91625,5.535,1.8975C5.52375,1.875,5.5125,1.8525,5.4975000000000005,1.83375C5.48625,1.81125,5.4712499999999995,1.7925,5.45625,1.77375C5.4375,1.755,5.422499999999999,1.73625,5.4037500000000005,1.72125C5.38875,1.7025000000000001,5.37,1.6875,5.35125,1.66875C5.3325,1.65375,5.313750000000001,1.63875,5.29125,1.6275C5.2725,1.6125,5.25,1.60125,5.2275,1.59C5.20875,1.57875,5.186249999999999,1.5675,5.16375,1.55625C5.1375,1.54875,5.115,1.54125,5.092499999999999,1.5337501C5.07,1.52625,5.04375,1.51875,5.02125,1.515C4.998749999999999,1.51125,4.9725,1.50750005,4.95,1.50374997C4.92375,1.5,4.90125,1.5,4.875,1.5C4.84875,1.5,4.82625,1.5,4.8,1.50374997C4.7775,1.50750005,4.751250000000001,1.51125,4.72875,1.515C4.70625,1.51875,4.68,1.52625,4.657500000000001,1.5337501C4.635,1.54125,4.6125,1.54875,4.58625,1.55625C4.563750000000001,1.5675,4.54125,1.57875,4.5225,1.59C4.5,1.60125,4.4775,1.6125,4.45875,1.6275C4.436249999999999,1.63875,4.4175,1.65375,4.39875,1.66875C4.38,1.6875,4.36125,1.7025000000000001,4.3462499999999995,1.72125C4.327500000000001,1.73625,4.3125,1.755,4.29375,1.77375C4.2787500000000005,1.7925,4.26375,1.81125,4.2524999999999995,1.83375C4.2375,1.8525,4.22625,1.875,4.215,1.8975C4.203749999999999,1.91625,4.1925,1.93875,4.18125,1.96125C4.17375,1.9875,4.16625,2.01,4.1587499999999995,2.0324999999999998C4.15125,2.055,4.14375,2.08125,4.140000000000001,2.10375C4.13625,2.1262499999999998,4.1325,2.1525,4.12875,2.175C4.125,2.20125,4.125,2.22375,4.125,2.25L4.125,7.58396C3.93335,7.6278,3.74575,7.68866,3.5625,7.76625C3.1574999999999998,7.935,2.7975000000000003,8.175,2.48625,8.48625C2.175,8.7975,1.935,9.157499999999999,1.7662499999999999,9.5625C1.59,9.97875,1.5,10.4175,1.5,10.875C1.5,11.3325,1.59,11.7712,1.7662499999999999,12.1875C1.935,12.5925,2.175,12.9525,2.48625,13.2637C2.7975000000000003,13.575,3.1574999999999998,13.815,3.5625,13.9837C3.74575,14.0613,3.93335,14.1222,4.125,14.166L4.125,15.75C4.125,15.7762,4.125,15.7987,4.12875,15.825C4.1325,15.8475,4.13625,15.8737,4.140000000000001,15.8962C4.14375,15.9187,4.15125,15.945,4.1587499999999995,15.9675C4.16625,15.99,4.17375,16.0125,4.18125,16.0387C4.1925,16.0612,4.203749999999999,16.0837,4.215,16.1025C4.22625,16.125,4.2375,16.1475,4.2524999999999995,16.1662C4.26375,16.1887,4.2787500000000005,16.2075,4.29375,16.2262C4.3125,16.244999999999997,4.327500000000001,16.2637,4.3462499999999995,16.2787C4.36125,16.2975,4.38,16.3125,4.39875,16.331200000000003C4.4175,16.3462,4.436249999999999,16.3612,4.45875,16.372500000000002C4.4775,16.3875,4.5,16.3988,4.5225,16.41C4.54125,16.4212,4.563750000000001,16.432499999999997,4.58625,16.4437C4.6125,16.4512,4.635,16.4587,4.657500000000001,16.4662C4.68,16.4737,4.70625,16.4812,4.72875,16.485C4.751250000000001,16.488799999999998,4.7775,16.4925,4.8,16.496299999999998C4.82625,16.5,4.84875,16.5,4.875,16.5C4.90125,16.5,4.92375,16.5,4.95,16.496299999999998C4.9725,16.4925,4.998749999999999,16.488799999999998,5.02125,16.485C5.04375,16.4812,5.07,16.4737,5.092499999999999,16.4662C5.115,16.4587,5.1375,16.4512,5.16375,16.4437C5.186249999999999,16.432499999999997,5.20875,16.4212,5.2275,16.41C5.25,16.3988,5.2725,16.3875,5.29125,16.372500000000002C5.313750000000001,16.3612,5.3325,16.3462,5.35125,16.331200000000003C5.37,16.3125,5.38875,16.2975,5.4037500000000005,16.2787C5.422499999999999,16.2637,5.4375,16.244999999999997,5.45625,16.2262C5.4712499999999995,16.2075,5.48625,16.1887,5.4975000000000005,16.1662C5.5125,16.1475,5.52375,16.125,5.535,16.1025C5.54625,16.0837,5.5575,16.0612,5.56875,16.0387C5.57625,16.0125,5.58375,15.99,5.59125,15.9675C5.59875,15.945,5.60625,15.9187,5.61,15.8962C5.61375,15.8737,5.6175,15.8475,5.62125,15.825C5.625,15.7987,5.625,15.7762,5.625,15.75L5.625,14.166C5.81666,14.1222,6.00424,14.0613,6.1875,13.9837C6.5925,13.815,6.9525,13.575,7.26375,13.2637C7.575,12.9525,7.815,12.5925,7.98375,12.1875C8.16,11.7712,8.25,11.3325,8.25,10.875C8.25,10.4175,8.16,9.97875,7.98375,9.5625C7.815,9.157499999999999,7.575,8.7975,7.26375,8.48625C6.9525,8.175,6.5925,7.935,6.1875,7.76625C6.00424,7.68866,5.81666,7.6278,5.625,7.58396L5.625,2.25C5.625,2.22375,5.625,2.20125,5.62125,2.175C5.6175,2.1525,5.61375,2.1262499999999998,5.61,2.10375ZM13.875,2.25C13.875,2.22375,13.875,2.20125,13.8712,2.175C13.8675,2.1525,13.8637,2.1262499999999998,13.86,2.10375C13.8562,2.08125,13.8487,2.055,13.8412,2.0324999999999998C13.8337,2.01,13.8262,1.9875,13.8187,1.96125C13.8075,1.93875,13.7962,1.91625,13.785,1.8975C13.7737,1.875,13.7625,1.8525,13.7475,1.83375C13.7362,1.81125,13.7212,1.7925,13.7062,1.77375C13.6875,1.755,13.6725,1.73625,13.6537,1.72125C13.6387,1.7025000000000001,13.62,1.6875,13.6012,1.66875C13.5825,1.65375,13.5637,1.63875,13.5412,1.6275C13.5225,1.6125,13.5,1.60125,13.4775,1.59C13.4587,1.57875,13.4362,1.5675,13.4137,1.55625C13.3875,1.54875,13.365,1.54125,13.3425,1.5337501C13.32,1.52625,13.2937,1.51875,13.2712,1.515C13.2487,1.51125,13.2225,1.50750005,13.2,1.50374997C13.1737,1.5,13.1512,1.5,13.125,1.5C13.0987,1.5,13.0762,1.5,13.05,1.50374997C13.0275,1.50750005,13.0012,1.51125,12.9787,1.515C12.9562,1.51875,12.93,1.52625,12.9075,1.5337501C12.885,1.54125,12.8625,1.54875,12.8362,1.55625C12.8137,1.5675,12.7912,1.57875,12.7725,1.59C12.75,1.60125,12.7275,1.6125,12.7087,1.6275C12.6862,1.63875,12.6675,1.65375,12.6487,1.66875C12.63,1.6875,12.6112,1.7025000000000001,12.5962,1.72125C12.5775,1.73625,12.5625,1.755,12.5437,1.77375C12.5287,1.7925,12.5137,1.81125,12.5025,1.83375C12.4875,1.8525,12.4762,1.875,12.465,1.8975C12.4537,1.91625,12.4425,1.93875,12.4312,1.96125C12.4237,1.9875,12.4162,2.01,12.4087,2.0324999999999998C12.4012,2.055,12.3937,2.08125,12.39,2.10375C12.3862,2.1262499999999998,12.3825,2.1525,12.3787,2.175C12.375,2.20125,12.375,2.22375,12.375,2.25L12.375,3.83394C12.1833,3.87778,11.9958,3.93866,11.8125,4.016249999999999C11.4075,4.1850000000000005,11.0475,4.425,10.7362,4.73625C10.425,5.047499999999999,10.185,5.407500000000001,10.0162,5.8125C9.84,6.22875,9.75,6.6675,9.75,7.125C9.75,7.5825,9.84,8.02125,10.0162,8.4375C10.185,8.842500000000001,10.425,9.2025,10.7362,9.51375C11.0475,9.825,11.4075,10.065,11.8125,10.2337C11.9958,10.3113,12.1833,10.3722,12.375,10.416L12.375,15.75C12.375,15.7762,12.375,15.7987,12.3787,15.825C12.3825,15.8475,12.3862,15.8737,12.39,15.8962C12.3937,15.9187,12.4012,15.945,12.4087,15.9675C12.4162,15.99,12.4237,16.0125,12.4312,16.0387C12.4425,16.0612,12.4537,16.0837,12.465,16.1025C12.4762,16.125,12.4875,16.1475,12.5025,16.1662C12.5137,16.1887,12.5287,16.2075,12.5437,16.2262C12.5625,16.244999999999997,12.5775,16.2637,12.5962,16.2787C12.6112,16.2975,12.63,16.3125,12.6487,16.331200000000003C12.6675,16.3462,12.6862,16.3612,12.7087,16.372500000000002C12.7275,16.3875,12.75,16.3988,12.7725,16.41C12.7912,16.4212,12.8137,16.432499999999997,12.8362,16.4437C12.8625,16.4512,12.885,16.4587,12.9075,16.4662C12.93,16.4737,12.9562,16.4812,12.9787,16.485C13.0012,16.488799999999998,13.0275,16.4925,13.05,16.496299999999998C13.0762,16.5,13.0987,16.5,13.125,16.5C13.1512,16.5,13.1737,16.5,13.2,16.496299999999998C13.2225,16.4925,13.2487,16.488799999999998,13.2712,16.485C13.2937,16.4812,13.32,16.4737,13.3425,16.4662C13.365,16.4587,13.3875,16.4512,13.4137,16.4437C13.4362,16.432499999999997,13.4587,16.4212,13.4775,16.41C13.5,16.3988,13.5225,16.3875,13.5412,16.372500000000002C13.5637,16.3612,13.5825,16.3462,13.6012,16.331200000000003C13.62,16.3125,13.6387,16.2975,13.6537,16.2787C13.6725,16.2637,13.6875,16.244999999999997,13.7062,16.2262C13.7212,16.2075,13.7362,16.1887,13.7475,16.1662C13.7625,16.1475,13.7737,16.125,13.785,16.1025C13.7962,16.0837,13.8075,16.0612,13.8187,16.0387C13.8262,16.0125,13.8337,15.99,13.8412,15.9675C13.8487,15.945,13.8562,15.9187,13.86,15.8962C13.8637,15.8737,13.8675,15.8475,13.8712,15.825C13.875,15.7987,13.875,15.7762,13.875,15.75L13.875,10.416C14.0667,10.3722,14.2542,10.3113,14.4375,10.2337C14.8425,10.065,15.2025,9.825,15.5137,9.51375C15.825,9.2025,16.064999999999998,8.842500000000001,16.2337,8.4375C16.41,8.02125,16.5,7.5825,16.5,7.125C16.5,6.6675,16.41,6.22875,16.2337,5.8125C16.064999999999998,5.407500000000001,15.825,5.047499999999999,15.5137,4.73625C15.2025,4.425,14.8425,4.1850000000000005,14.4375,4.016249999999999C14.2542,3.93866,14.0667,3.87778,13.875,3.83394L13.875,2.25ZM13.8562,8.85375C14.0812,8.76,14.28,8.625,14.4525,8.4525C14.625,8.280000000000001,14.76,8.08125,14.8537,7.85625C14.9512,7.62375,15,7.38,15,7.125C15,6.87,14.9512,6.62625,14.8537,6.39375C14.76,6.16875,14.625,5.97,14.4525,5.7975C14.28,5.625,14.0812,5.49,13.8562,5.39625C13.6237,5.29875,13.38,5.25,13.125,5.25C12.87,5.25,12.6262,5.29875,12.3937,5.39625C12.1687,5.49,11.97,5.625,11.7975,5.7975C11.625,5.97,11.49,6.16875,11.3962,6.39375C11.2987,6.62625,11.25,6.87,11.25,7.125C11.25,7.38,11.2987,7.62375,11.3962,7.85625C11.49,8.08125,11.625,8.280000000000001,11.7975,8.4525C11.97,8.625,12.1687,8.76,12.3937,8.85375C12.6262,8.95125,12.87,9,13.125,9C13.38,9,13.6237,8.95125,13.8562,8.85375ZM6.2025,12.2025C6.375,12.03,6.51,11.8312,6.60375,11.6062C6.70125,11.3737,6.75,11.13,6.75,10.875C6.75,10.62,6.70125,10.3762,6.60375,10.1437C6.51,9.91875,6.375,9.72,6.2025,9.5475C6.03,9.375,5.83125,9.24,5.60625,9.14625C5.373749999999999,9.04875,5.13,9,4.875,9C4.62,9,4.376250000000001,9.04875,4.14375,9.14625C3.91875,9.24,3.72,9.375,3.5475,9.5475C3.375,9.72,3.24,9.91875,3.14625,10.1437C3.04875,10.3762,3,10.62,3,10.875C3,11.13,3.04875,11.3737,3.14625,11.6062C3.24,11.8312,3.375,12.03,3.5475,12.2025C3.72,12.375,3.91875,12.51,4.14375,12.6037C4.376250000000001,12.7012,4.62,12.75,4.875,12.75C5.13,12.75,5.373749999999999,12.7012,5.60625,12.6037C5.83125,12.51,6.03,12.375,6.2025,12.2025Z" fill-rule="evenodd" fill="#FFFFFF" fill-opacity="1"/></g></g></svg>