<svg xmlns="http://www.w3.org/2000/svg" xmlns:xlink="http://www.w3.org/1999/xlink" fill="none" version="1.1" width="18" height="18" viewBox="0 0 18 18"><defs><clipPath id="master_svg0_3_068"><rect x="0" y="0" width="18" height="18" rx="0"/></clipPath></defs><g clip-path="url(#master_svg0_3_068)"><g><path d="M14.606177734375,12.202175L14.606177734375,2.297805C14.606177734375,1.885305,14.951677734375,1.546875,15.374077734375,1.546875C15.796377734375,1.546875,16.141877734375,1.885305,16.141877734375,2.297805L16.141877734375,12.202175C16.141877734375,12.614675,15.796377734375,12.953075,15.374077734375,12.953075C14.951677734375,12.953075,14.606177734375,12.614675,14.606177734375,12.202175ZM11.892177734375,5.717815L11.892177734375,15.702175C11.892177734375,16.114675,11.546697734375,16.453075,11.124397734375,16.453075C10.701997734375,16.453075,10.356597734375,16.114675,10.356597734375,15.702175L10.356597734375,5.717815C10.356597734375,5.305315,10.701997734375,4.9696750000000005,11.124397734375,4.9696750000000005C11.546697734375,4.9696750000000005,11.892177734375,5.305315,11.892177734375,5.717815ZM7.642487734375,8.999995L7.642487734375,15.702175C7.642487734375,16.114675,7.296967734375,16.453075,6.874677734375,16.453075C6.452387734375,16.453075,6.106867734375,16.114675,6.106867734375,15.702175L6.106867734375,8.999995C6.106867734375,8.587495,6.452387734375,8.249065,6.874677734375,8.249065C7.296957734375,8.249065,7.642487734375,8.587495,7.642487734375,8.999995ZM3.3927977343749998,12.045875L3.3927977343749998,15.702175C3.3927977343749998,16.114675,3.047307734375,16.453075,2.624987734375,16.453075C2.202667734375,16.453075,1.857177734375,16.114675,1.857177734375,15.702175L1.857177734375,12.045875C1.857177734375,11.633375,2.202667734375,11.297795,2.624987734375,11.297795C3.047307734375,11.297795,3.3927977343749998,11.633375,3.3927977343749998,12.045875ZM15.349977734375,16.449975000000002Q15.448477734375,16.449975000000002,15.545077734375,16.430775Q15.641677734375,16.411575,15.732677734375,16.373874999999998Q15.823677734375,16.336175,15.905577734375,16.281475Q15.987477734375,16.226775,16.057077734375,16.157075Q16.126777734375,16.087474999999998,16.181477734375,16.005575Q16.236177734374998,15.923675,16.273877734375,15.832675Q16.311577734375,15.741675,16.330777734374998,15.645075Q16.349977734375003,15.548475,16.349977734375003,15.449975Q16.349977734375003,15.351475,16.330777734374998,15.254875Q16.311577734375,15.158275,16.273877734375,15.067275Q16.236177734374998,14.976275,16.181477734375,14.894475Q16.126777734375,14.812575,16.057077734375,14.742875Q15.987477734375,14.673275,15.905577734375,14.618575Q15.823677734375,14.563775,15.732677734375,14.526075Q15.641677734375,14.488475,15.545077734375,14.469175Q15.448477734375,14.449975,15.349977734375,14.449975Q15.251477734375,14.449975,15.154877734375,14.469175Q15.058277734375,14.488475,14.967277734375,14.526075Q14.876277734375,14.563775,14.794477734375,14.618575Q14.712577734375,14.673275,14.642877734375,14.742875Q14.573277734375,14.812575,14.518577734375,14.894475Q14.463777734375,14.976275,14.426077734375,15.067275Q14.388477734375,15.158275,14.369177734375,15.254875Q14.349977734375,15.351475,14.349977734375,15.449975Q14.349977734375,15.548475,14.369177734375,15.645075Q14.388477734375,15.741675,14.426077734375,15.832675Q14.463777734375,15.923675,14.518577734375,16.005575Q14.573277734375,16.087474999999998,14.642877734375,16.157075Q14.712577734375,16.226775,14.794477734375,16.281475Q14.876277734375,16.336175,14.967277734375,16.373874999999998Q15.058277734375,16.411575,15.154877734375,16.430775Q15.251477734375,16.449975000000002,15.349977734375,16.449975000000002Z" fill-rule="evenodd" fill="#FFFFFF" fill-opacity="0.5"/></g></g></svg>