<svg xmlns="http://www.w3.org/2000/svg" xmlns:xlink="http://www.w3.org/1999/xlink" width="128" height="128" viewBox="0 0 128 128" fill="none">
<g  clip-path="url(#clip-path-2_5)">
<path d="M70.652 4.00074C69.6908 3.97208 68.9075 4.76022 68.9075 5.72916L68.9075 63.6251C68.9075 71.4586 70.4361 79.2148 73.4055 86.452C76.3753 93.6896 80.7282 100.265 86.2153 105.804C91.7025 111.343 98.217 115.738 105.387 118.735C112.018 121.507 119.09 123.036 126.256 123.249C127.217 123.278 128 122.49 128 121.521L128 63.6251C128 55.792 126.471 48.0351 123.502 40.798C120.532 33.5609 116.179 26.985 110.692 21.4459C105.205 15.907 98.6906 11.513 91.5211 8.51515C84.8894 5.74258 77.8172 4.21437 70.652 4.00074Z" fill-rule="evenodd"  fill="url(#linear_fill_3_2)" >
</path>
<path d="M57.3485 123.249C58.3091 123.278 59.0929 122.49 59.0929 121.521L59.0929 63.6251C59.0929 55.7915 57.5642 48.0353 54.5948 40.7983C51.6248 33.5607 47.2721 26.9851 41.7849 21.4458C36.2977 15.9071 29.7833 11.5129 22.6138 8.51518C15.9821 5.74283 8.9099 4.21441 1.74456 4.00074C0.78335 3.97209 -1.52588e-05 4.76022 -1.52588e-05 5.72916L-1.52588e-05 63.6251C-1.52588e-05 71.4582 1.52886 79.2148 4.49822 86.452C7.46796 93.6896 11.8209 100.265 17.3081 105.804C22.7953 111.343 29.3097 115.738 36.4792 118.735C43.1109 121.508 50.1829 123.036 57.3485 123.249Z" fill-rule="evenodd"  fill="url(#linear_fill_3_4)" >
</path>
</g>
<defs>
<clipPath id="clip-path-2_5">
<path d="M0 128L128 128L128 0L0 0L0 128Z" fill="white"/>
</clipPath>
<linearGradient id="linear_fill_3_2" x1="79.81301879882812" y1="22.67333984375" x2="128.0001220703125" y2="123.25" gradientUnits="userSpaceOnUse">
<stop offset="0" stop-color="#23BFEB"  />
<stop offset="1" stop-color="#1081DE"  />
</linearGradient>
<linearGradient id="linear_fill_3_4" x1="8.178985595703125" y1="19.9437255859375" x2="45.46104431152344" y2="123.25" gradientUnits="userSpaceOnUse">
<stop offset="0" stop-color="#0CEDAA"  />
<stop offset="1" stop-color="#14B8A5"  />
</linearGradient>
</defs>
</svg>
