<svg xmlns="http://www.w3.org/2000/svg" xmlns:xlink="http://www.w3.org/1999/xlink" width="128" height="128" viewBox="0 0 128 128" fill="none">
<path d="M58.18 116.343C59.0205 116.368 59.7063 115.679 59.7063 114.831L59.7063 64.1719C59.7063 57.3175 58.3687 50.5308 55.7705 44.1984C53.1717 37.8655 49.3632 32.1119 44.5619 27.265C39.7606 22.4186 34.0605 18.5737 27.7871 15.9507C21.9844 13.5249 15.7962 12.1875 9.52651 12.0006C8.68544 11.9755 8 12.6651 8 13.5129L8 64.1719C8 71.0258 9.33777 77.8129 11.936 84.1454C14.5345 90.4783 18.3434 96.2316 23.1446 101.079C27.9459 105.925 33.6461 109.771 39.9193 112.393C45.7221 114.82 51.91 116.157 58.18 116.343ZM69.8204 12.0006C68.9794 11.9755 68.294 12.6651 68.294 13.5129L68.294 64.1719C68.294 71.0262 69.6316 77.8129 72.2297 84.1454C74.8283 90.4783 78.6371 96.2316 83.4383 101.079C88.2396 105.925 93.9398 109.771 100.213 112.393C106.016 114.819 112.204 116.157 118.474 116.343C119.315 116.368 120 115.679 120 114.831L120 64.1719C120 57.3179 118.662 50.5306 116.064 44.1982C113.466 37.8657 109.657 32.1118 104.856 27.2651C100.054 22.4185 94.3542 18.5738 88.0809 15.9507C82.2782 13.5247 76.09 12.1875 69.8204 12.0006Z" fill-rule="evenodd"  fill="#F0F0F0" >
</path>
</svg>
